<?xml version="1.0" encoding="UTF-8"?>
<svg xmlns="http://www.w3.org/2000/svg" xmlns:xlink="http://www.w3.org/1999/xlink" width="64px" height="64px" viewBox="0 0 64 64" version="1.1">
<g id="surface1">
<path style=" stroke:none;fill-rule:nonzero;fill:rgb(0%,0%,0%);fill-opacity:1;" d="M 14.207031 10.671875 L 53.328125 49.792969 L 49.792969 53.328125 L 10.671875 14.207031 Z M 14.207031 10.671875 "/>
<path style=" stroke:none;fill-rule:nonzero;fill:rgb(0%,0%,0%);fill-opacity:1;" d="M 10.671875 49.792969 L 49.792969 10.671875 L 53.328125 14.207031 L 14.207031 53.328125 Z M 10.671875 49.792969 "/>
<path style=" stroke:none;fill-rule:nonzero;fill:rgb(0%,0%,0%);fill-opacity:1;" d="M 12.378906 9.890625 C 13.757812 9.890625 14.878906 11.011719 14.878906 12.390625 C 14.878906 13.769531 13.757812 14.890625 12.378906 14.890625 C 11 14.890625 9.878906 13.769531 9.878906 12.390625 C 9.878906 11.011719 11 9.890625 12.378906 9.890625 Z M 12.378906 9.890625 "/>
<path style=" stroke:none;fill-rule:nonzero;fill:rgb(0%,0%,0%);fill-opacity:1;" d="M 51.613281 9.890625 C 52.996094 9.890625 54.113281 11.011719 54.113281 12.390625 C 54.113281 13.769531 52.996094 14.890625 51.613281 14.890625 C 50.234375 14.890625 49.113281 13.769531 49.113281 12.390625 C 49.113281 11.011719 50.234375 9.890625 51.613281 9.890625 Z M 51.613281 9.890625 "/>
<path style=" stroke:none;fill-rule:nonzero;fill:rgb(0%,0%,0%);fill-opacity:1;" d="M 12.378906 49.152344 C 13.757812 49.152344 14.878906 50.273438 14.878906 51.652344 C 14.878906 53.03125 13.757812 54.152344 12.378906 54.152344 C 11 54.152344 9.878906 53.03125 9.878906 51.652344 C 9.878906 50.273438 11 49.152344 12.378906 49.152344 Z M 12.378906 49.152344 "/>
<path style=" stroke:none;fill-rule:nonzero;fill:rgb(0%,0%,0%);fill-opacity:1;" d="M 51.613281 49.152344 C 52.996094 49.152344 54.113281 50.273438 54.113281 51.652344 C 54.113281 53.03125 52.996094 54.152344 51.613281 54.152344 C 50.234375 54.152344 49.113281 53.03125 49.113281 51.652344 C 49.113281 50.273438 50.234375 49.152344 51.613281 49.152344 Z M 51.613281 49.152344 "/>
</g>
</svg>
