<?xml version="1.0" encoding="UTF-8" standalone="no" ?>
<!DOCTYPE svg PUBLIC "-//W3C//DTD SVG 1.1//EN" "http://www.w3.org/Graphics/SVG/1.1/DTD/svg11.dtd">
<svg xmlns="http://www.w3.org/2000/svg" xmlns:xlink="http://www.w3.org/1999/xlink" version="1.1" width="512" height="512" viewBox="0 0 512 512" xml:space="preserve">
<desc>Created with Fabric.js 5.3.0</desc>
<defs>
</defs>
<g transform="matrix(2.9849905685 2.9849905685 -0.2697884458 0.2697884458 256.0000000039 255.9999999999)" id="F4OgNHIVjgr0aDyPraPI-"  >
<path style="stroke: rgb(100,70,135); stroke-width: 0; stroke-dasharray: none; stroke-linecap: butt; stroke-dashoffset: 0; stroke-linejoin: miter; stroke-miterlimit: 4; fill: rgb(0,0,0); fill-rule: nonzero; opacity: 1;" vector-effect="non-scaling-stroke"  transform=" translate(0, 0)" d="M -52.41935 -52.41935 L 52.41935 -52.41935 L 52.41935 52.41935 L -52.41935 52.41935 z" stroke-linecap="round" />
</g>
<g transform="matrix(2.9849905685 -2.9849905685 0.2697884458 0.2697884458 255.9999999988 255.9999990691)" id="hvBDCUjOGSpPxhza2x3P_"  >
<path style="stroke: rgb(100,70,135); stroke-width: 0; stroke-dasharray: none; stroke-linecap: butt; stroke-dashoffset: 0; stroke-linejoin: miter; stroke-miterlimit: 4; fill: rgb(0,0,0); fill-rule: nonzero; opacity: 1;" vector-effect="non-scaling-stroke"  transform=" translate(0, 0)" d="M -52.41935 -52.41935 L 52.41935 -52.41935 L 52.41935 52.41935 L -52.41935 52.41935 z" stroke-linecap="round" />
</g>
<g transform="matrix(0.7936121897 0 0 0.7936121897 99.035169464 99.1236956406)" id="wH6UFDlv4M1PFSJ-loMzC"  >
<path style="stroke: rgb(189,109,67); stroke-width: 0; stroke-dasharray: none; stroke-linecap: butt; stroke-dashoffset: 0; stroke-linejoin: miter; stroke-miterlimit: 4; fill: rgb(0,0,0); fill-rule: nonzero; opacity: 1;" vector-effect="non-scaling-stroke"  transform=" translate(0, 0)" d="M 0 -25.20123 C 13.91108 -25.20123 25.20123 -13.911079999999998 25.20123 0 C 25.20123 13.91108 13.911079999999998 25.20123 0 25.20123 C -13.91108 25.20123 -25.20123 13.911079999999998 -25.20123 0 C -25.20123 -13.91108 -13.911079999999998 -25.20123 0 -25.20123 z" stroke-linecap="round" />
</g>
<g transform="matrix(0.7936121897 0 0 0.7936121897 412.9179619544 99.1236989641)" id="YouRx08u_OiKhVQuMQPA5"  >
<path style="stroke: rgb(189,109,67); stroke-width: 0; stroke-dasharray: none; stroke-linecap: butt; stroke-dashoffset: 0; stroke-linejoin: miter; stroke-miterlimit: 4; fill: rgb(0,0,0); fill-rule: nonzero; opacity: 1;" vector-effect="non-scaling-stroke"  transform=" translate(0, 0)" d="M 0 -25.20123 C 13.91108 -25.20123 25.20123 -13.911079999999998 25.20123 0 C 25.20123 13.91108 13.911079999999998 25.20123 0 25.20123 C -13.91108 25.20123 -25.20123 13.911079999999998 -25.20123 0 C -25.20123 -13.91108 -13.911079999999998 -25.20123 0 -25.20123 z" stroke-linecap="round" />
</g>
<g transform="matrix(0.7936121897 0 0 0.7936121897 99.0351727875 413.2230521037)" id="I3ABHR114It9xTNkXEmTR"  >
<path style="stroke: rgb(189,109,67); stroke-width: 0; stroke-dasharray: none; stroke-linecap: butt; stroke-dashoffset: 0; stroke-linejoin: miter; stroke-miterlimit: 4; fill: rgb(0,0,0); fill-rule: nonzero; opacity: 1;" vector-effect="non-scaling-stroke"  transform=" translate(0, 0)" d="M 0 -25.20123 C 13.91108 -25.20123 25.20123 -13.911079999999998 25.20123 0 C 25.20123 13.91108 13.911079999999998 25.20123 0 25.20123 C -13.91108 25.20123 -25.20123 13.911079999999998 -25.20123 0 C -25.20123 -13.91108 -13.911079999999998 -25.20123 0 -25.20123 z" stroke-linecap="round" />
</g>
<g transform="matrix(0.7936121897 0 0 0.7936121897 412.9179619544 413.2230521037)" id="GxAOxFts6II7ESbc6I6Im"  >
<path style="stroke: rgb(189,109,67); stroke-width: 0; stroke-dasharray: none; stroke-linecap: butt; stroke-dashoffset: 0; stroke-linejoin: miter; stroke-miterlimit: 4; fill: rgb(0,0,0); fill-rule: nonzero; opacity: 1;" vector-effect="non-scaling-stroke"  transform=" translate(0, 0)" d="M 0 -25.20123 C 13.91108 -25.20123 25.20123 -13.911079999999998 25.20123 0 C 25.20123 13.91108 13.911079999999998 25.20123 0 25.20123 C -13.91108 25.20123 -25.20123 13.911079999999998 -25.20123 0 C -25.20123 -13.91108 -13.911079999999998 -25.20123 0 -25.20123 z" stroke-linecap="round" />
</g>
</svg>