<?xml version="1.0" encoding="UTF-8" standalone="no" ?>
<!DOCTYPE svg PUBLIC "-//W3C//DTD SVG 1.1//EN" "http://www.w3.org/Graphics/SVG/1.1/DTD/svg11.dtd">
<svg xmlns="http://www.w3.org/2000/svg" xmlns:xlink="http://www.w3.org/1999/xlink" version="1.1" width="512" height="512" viewBox="0 0 512 512" xml:space="preserve">
<desc>Created with Fabric.js 5.3.0</desc>
<defs>
</defs>
<g transform="matrix(1.7136517804 0 0 2.5893353047 255.9999999949 256)" id="9scD3Z1pHMYxQBhwO8Uc8"  >
<path style="stroke: rgb(105,85,14); stroke-width: 0; stroke-dasharray: none; stroke-linecap: butt; stroke-dashoffset: 0; stroke-linejoin: miter; stroke-miterlimit: 4; fill: rgb(0,0,0); fill-rule: nonzero; opacity: 1;" vector-effect="non-scaling-stroke"  transform=" translate(0, 0)" d="M -96.51311 7.72398 C -96.51657999999999 7.72399 -96.52005 7.72399 -96.52351999999999 7.72399 C -100.41868 7.72399 -103.57996999999999 4.26364 -103.57996999999999 0 C -103.57996999999999 -4.26364 -100.41868 -7.72399 -96.52351999999999 -7.72399 C -96.52192 -7.72399 -96.52031999999998 -7.72399 -96.51870999999998 -7.72399 L 96.51612000000002 -7.72399 C 96.51859000000002 -7.72399 96.52105000000002 -7.72399 96.52352000000002 -7.72399 C 100.41868000000002 -7.72399 103.57997000000002 -4.26364 103.57997000000002 0 C 103.57997000000002 4.26364 100.41868000000002 7.72399 96.52352000000002 7.72399 C 96.52060000000002 7.72399 96.51768000000001 7.72399 96.51476000000002 7.72398 z" stroke-linecap="round" />
</g>
<g transform="matrix(1.7136517804 0 0 2.5893353047 256 105.0000000001)" id="2kQXwBQb8RZzZbIwsnkV5"  >
<path style="stroke: rgb(105,85,14); stroke-width: 0; stroke-dasharray: none; stroke-linecap: butt; stroke-dashoffset: 0; stroke-linejoin: miter; stroke-miterlimit: 4; fill: rgb(0,0,0); fill-rule: nonzero; opacity: 1;" vector-effect="non-scaling-stroke"  transform=" translate(0, 0)" d="M -96.51311 7.72398 C -96.51657999999999 7.72399 -96.52005 7.72399 -96.52351999999999 7.72399 C -100.41868 7.72399 -103.57996999999999 4.26364 -103.57996999999999 0 C -103.57996999999999 -4.26364 -100.41868 -7.72399 -96.52351999999999 -7.72399 C -96.52192 -7.72399 -96.52031999999998 -7.72399 -96.51870999999998 -7.72399 L 96.51612000000002 -7.72399 C 96.51859000000002 -7.72399 96.52105000000002 -7.72399 96.52352000000002 -7.72399 C 100.41868000000002 -7.72399 103.57997000000002 -4.26364 103.57997000000002 0 C 103.57997000000002 4.26364 100.41868000000002 7.72399 96.52352000000002 7.72399 C 96.52060000000002 7.72399 96.51768000000001 7.72399 96.51476000000002 7.72398 z" stroke-linecap="round" />
</g>
<g transform="matrix(1.7136517804 0 0 2.5893353047 256 407.0000000001)" id="hr5FitvrVLYaslKnR7PVn"  >
<path style="stroke: rgb(105,85,14); stroke-width: 0; stroke-dasharray: none; stroke-linecap: butt; stroke-dashoffset: 0; stroke-linejoin: miter; stroke-miterlimit: 4; fill: rgb(0,0,0); fill-rule: nonzero; opacity: 1;" vector-effect="non-scaling-stroke"  transform=" translate(0, 0)" d="M -96.51311 7.72398 C -96.51657999999999 7.72399 -96.52005 7.72399 -96.52351999999999 7.72399 C -100.41868 7.72399 -103.57996999999999 4.26364 -103.57996999999999 0 C -103.57996999999999 -4.26364 -100.41868 -7.72399 -96.52351999999999 -7.72399 C -96.52192 -7.72399 -96.52031999999998 -7.72399 -96.51870999999998 -7.72399 L 96.51612000000002 -7.72399 C 96.51859000000002 -7.72399 96.52105000000002 -7.72399 96.52352000000002 -7.72399 C 100.41868000000002 -7.72399 103.57997000000002 -4.26364 103.57997000000002 0 C 103.57997000000002 4.26364 100.41868000000002 7.72399 96.52352000000002 7.72399 C 96.52060000000002 7.72399 96.51768000000001 7.72399 96.51476000000002 7.72398 z" stroke-linecap="round" />
</g>
</svg>