<?xml version="1.0" encoding="UTF-8"?>
<svg xmlns="http://www.w3.org/2000/svg" xmlns:xlink="http://www.w3.org/1999/xlink" width="64px" height="px" viewBox="0 0 64 64" version="1.1">
<g id="surface1">
<path style=" stroke:none;fill-rule:evenodd;fill:rgb(0%,0%,0%);fill-opacity:1;" d="M 50.773438 35.097656 C 49.636719 34.023438 38.132812 23.085938 34.65625 19.609375 C 33.707031 18.660156 33.136719 18.09375 32.125 18.09375 C 31.113281 18.09375 30.546875 18.660156 29.597656 19.609375 C 26.121094 23.085938 14.617188 34.023438 13.476562 35.097656 C 11.960938 36.613281 12.023438 37.753906 12.023438 38.574219 C 12.023438 39.207031 12.023438 48.4375 12.023438 52.859375 C 12.023438 54.253906 12.78125 55.136719 13.921875 55.136719 C 14.742188 55.136719 20.242188 55.136719 23.277344 55.136719 C 24.539062 55.136719 25.300781 53.9375 25.300781 52.925781 C 25.363281 51.535156 25.300781 44.894531 25.300781 43.441406 C 25.300781 42.683594 25.363281 42.242188 26.246094 41.167969 C 30.800781 35.601562 31.113281 35.539062 32.125 35.539062 C 33.074219 35.539062 33.453125 35.601562 38.003906 41.167969 C 38.890625 42.242188 38.953125 42.683594 38.953125 43.441406 C 38.953125 44.960938 38.890625 51.597656 38.953125 52.925781 C 38.953125 53.9375 39.710938 55.136719 40.976562 55.136719 C 44.011719 55.136719 49.511719 55.136719 50.332031 55.136719 C 51.46875 55.136719 52.230469 54.253906 52.230469 52.859375 C 52.230469 48.5 52.230469 39.269531 52.230469 38.574219 C 52.230469 37.753906 52.292969 36.613281 50.773438 35.097656 Z M 50.773438 35.097656 "/>
<path style=" stroke:none;fill-rule:evenodd;fill:rgb(0%,0%,0%);fill-opacity:1;" d="M 56.464844 29.914062 C 56.148438 29.597656 54.125 27.703125 51.46875 25.234375 L 51.46875 14.933594 C 51.46875 14.425781 51.089844 14.046875 50.648438 14.046875 L 44.894531 14.046875 C 44.453125 14.046875 44.074219 14.425781 44.074219 14.933594 L 44.074219 18.28125 C 40.21875 14.742188 36.679688 11.453125 35.414062 10.253906 C 34.339844 9.179688 33.199219 8.863281 32 8.863281 C 30.800781 8.863281 29.660156 9.179688 28.585938 10.253906 C 25.425781 13.226562 8.546875 28.902344 7.535156 29.914062 C 6.585938 30.863281 6.523438 31.683594 7.03125 32.378906 L 9.117188 34.78125 C 9.621094 35.351562 10.253906 35.289062 10.757812 34.84375 C 11.328125 34.339844 23.84375 22.390625 29.40625 17.019531 C 30.105469 16.386719 31.050781 15.5625 32 15.5625 C 32.949219 15.5625 33.832031 16.324219 34.59375 17.019531 C 40.21875 22.390625 52.734375 34.339844 53.242188 34.84375 C 53.746094 35.289062 54.378906 35.351562 54.882812 34.78125 L 56.96875 32.378906 C 57.476562 31.683594 57.414062 30.863281 56.464844 29.914062 Z M 56.464844 29.914062 "/>
</g>
</svg>
