<?xml version="1.0" encoding="UTF-8"?>
<svg xmlns="http://www.w3.org/2000/svg" xmlns:xlink="http://www.w3.org/1999/xlink" width="64px" height="px" viewBox="0 0 64 64" version="1.1">
<g id="surface1">
<path style=" stroke:none;fill-rule:nonzero;fill:rgb(0%,0%,0%);fill-opacity:1;" d="M 54.179688 55.980469 L 31.542969 33.34375 L 31.554688 33.332031 C 31.265625 33.066406 31.085938 32.6875 31.085938 32.265625 C 31.085938 31.464844 31.734375 30.820312 32.53125 30.820312 C 33.007812 30.820312 33.429688 31.046875 33.695312 31.402344 L 56.179688 53.886719 C 56.488281 54.152344 56.6875 54.546875 56.6875 54.988281 C 56.6875 55.785156 56.039062 56.433594 55.238281 56.433594 C 54.824219 56.433594 54.449219 56.257812 54.183594 55.976562 Z M 54.179688 55.980469 "/>
<path style=" stroke:none;fill-rule:nonzero;fill:rgb(0%,0%,0%);fill-opacity:1;" d="M 31.539062 30.660156 L 54.175781 8.023438 L 54.191406 8.035156 C 54.453125 7.746094 54.832031 7.566406 55.253906 7.566406 C 56.054688 7.566406 56.703125 8.214844 56.703125 9.011719 C 56.703125 9.488281 56.472656 9.910156 56.117188 10.175781 L 33.632812 32.660156 C 33.367188 32.96875 32.972656 33.164062 32.53125 33.164062 C 31.734375 33.164062 31.085938 32.519531 31.085938 31.71875 C 31.085938 31.304688 31.261719 30.929688 31.542969 30.664062 Z M 31.539062 30.660156 "/>
<path style=" stroke:none;fill-rule:nonzero;fill:rgb(0%,0%,0%);fill-opacity:1;" d="M 30.390625 55.980469 L 7.753906 33.34375 L 7.765625 33.332031 C 7.480469 33.066406 7.296875 32.6875 7.296875 32.265625 C 7.296875 31.464844 7.945312 30.820312 8.746094 30.820312 C 9.21875 30.820312 9.640625 31.046875 9.90625 31.402344 L 32.390625 53.886719 C 32.703125 54.152344 32.898438 54.546875 32.898438 54.988281 C 32.898438 55.785156 32.25 56.433594 31.453125 56.433594 C 31.035156 56.433594 30.660156 56.257812 30.394531 55.976562 Z M 30.390625 55.980469 "/>
<path style=" stroke:none;fill-rule:nonzero;fill:rgb(0%,0%,0%);fill-opacity:1;" d="M 7.75 30.660156 L 30.390625 8.023438 L 30.402344 8.035156 C 30.667969 7.746094 31.046875 7.566406 31.46875 7.566406 C 32.265625 7.566406 32.914062 8.214844 32.914062 9.011719 C 32.914062 9.488281 32.683594 9.910156 32.328125 10.175781 L 9.84375 32.660156 C 9.578125 32.96875 9.183594 33.164062 8.746094 33.164062 C 7.945312 33.164062 7.296875 32.519531 7.296875 31.71875 C 7.296875 31.304688 7.472656 30.929688 7.753906 30.664062 Z M 7.75 30.660156 "/>
</g>
</svg>
