<?xml version="1.0" encoding="UTF-8" standalone="no" ?>
<!DOCTYPE svg PUBLIC "-//W3C//DTD SVG 1.1//EN" "http://www.w3.org/Graphics/SVG/1.1/DTD/svg11.dtd">
<svg xmlns="http://www.w3.org/2000/svg" xmlns:xlink="http://www.w3.org/1999/xlink" version="1.1" width="512" height="512" viewBox="0 0 512 512" xml:space="preserve">
<desc>Created with Fabric.js 5.3.0</desc>
<defs>
</defs>
<g transform="matrix(6.777 0 0 6.777 256 256)" id="6hzcqdndbr9iRb0-S4xKb"  >
<path style="stroke: rgb(128,128,128); stroke-width: 25; stroke-dasharray: none; stroke-linecap: butt; stroke-dashoffset: 0; stroke-linejoin: miter; stroke-miterlimit: 4; fill: rgb(128,128,128); fill-opacity: 0; fill-rule: nonzero; opacity: 1;" vector-effect="non-scaling-stroke"  transform=" translate(0, 0)" d="M 0 -33.20053 C 18.32669 -33.20053 33.20053 -18.32669 33.20053 0 C 33.20053 18.32669 18.32669 33.20053 0 33.20053 C -18.32669 33.20053 -33.20053 18.32669 -33.20053 0 C -33.20053 -18.32669 -18.32669 -33.20053 0 -33.20053 z" stroke-linecap="round" />
</g>
<g transform="matrix(1 0 0 1.4215504319 256 156.8109535843)" id="iCnZJofdIofKRL9ofKXzK"  >
<path style="stroke: rgb(189,109,67); stroke-width: 0; stroke-dasharray: none; stroke-linecap: butt; stroke-dashoffset: 0; stroke-linejoin: miter; stroke-miterlimit: 4; fill: rgb(128,128,128); fill-rule: nonzero; opacity: 1;" vector-effect="non-scaling-stroke"  transform=" translate(-10.000000233, -75.4737301417)" d="M 10 0 C 15.52 0 20 4.48 20 10 C 20 10.00103 20 10.00206 20 10.00308 L 20 140.94437000000002 C 20 140.9454 20 140.94643000000002 20 140.94745000000003 C 20 146.46745000000004 15.52 150.94745000000003 10 150.94745000000003 C 4.48 150.94745000000003 0 146.46745000000004 0 140.94745000000003 L 0 140.94745000000003 L 0 9.999990000000025 L 0 9.999990000000025 C 0 9.999990000000025 0 9.999990000000025 0 9.999990000000025 C 0 4.479990000000026 4.48 -0.000009999999974752427 10 -0.000009999999974752427 z" stroke-linecap="round" />
</g>
<g transform="matrix(0 1 -1.0001344359 0 321.4838763802 256)" id="1IH0QsEhU6KOr2S6EdYtQ"  >
<path style="stroke: rgb(189,109,67); stroke-width: 0; stroke-dasharray: none; stroke-linecap: butt; stroke-dashoffset: 0; stroke-linejoin: miter; stroke-miterlimit: 4; fill: rgb(128,128,128); fill-rule: nonzero; opacity: 1;" vector-effect="non-scaling-stroke"  transform=" translate(-10, -75.47372)" d="M 10 0 C 15.52 0 20 4.48 20 10 C 20 10.00103 20 10.00206 20 10.00308 L 20 140.94437000000002 C 20 140.9454 20 140.94643000000002 20 140.94745000000003 C 20 146.46745000000004 15.52 150.94745000000003 10 150.94745000000003 C 4.48 150.94745000000003 0 146.46745000000004 0 140.94745000000003 L 0 140.94745000000003 L 0 9.999990000000025 L 0 9.999990000000025 C 0 9.999990000000025 0 9.999990000000025 0 9.999990000000025 C 0 4.479990000000026 4.48 -0.000009999999974752427 10 -0.000009999999974752427 z" stroke-linecap="round" />
</g>
</svg>