<?xml version="1.0" encoding="UTF-8" standalone="no" ?>
<!DOCTYPE svg PUBLIC "-//W3C//DTD SVG 1.1//EN" "http://www.w3.org/Graphics/SVG/1.1/DTD/svg11.dtd">
<svg xmlns="http://www.w3.org/2000/svg" xmlns:xlink="http://www.w3.org/1999/xlink" version="1.1" width="500" height="500" viewBox="0 0 500 500" xml:space="preserve">
<desc>Created with Fabric.js 5.3.0</desc>
<defs>
</defs>
<g transform="matrix(4.9387593836 0 0 4.938759434 250 250)" id="Dv9kqGTNoe9ac_mAWpZhY"  >
<g style="" vector-effect="non-scaling-stroke"   >
		<g transform="matrix(1 0 0 1 0.2 7.3)" id="J1f7PVrtR05JfEIVsRI0q"  >
<path style="stroke: none; stroke-width: 1; stroke-dasharray: none; stroke-linecap: butt; stroke-dashoffset: 0; stroke-linejoin: miter; stroke-miterlimit: 4; fill: rgb(0,0,0); fill-rule: evenodd; opacity: 1;" vector-effect="non-scaling-stroke"  transform=" translate(-40.2, -47.3)" d="M 69.7 44.9 C 67.9 43.199999999999996 49.7 25.9 44.2 20.4 C 42.7 18.9 41.800000000000004 18 40.2 18 C 38.6 18 37.7 18.9 36.2 20.4 C 30.700000000000003 25.9 12.500000000000004 43.2 10.700000000000003 44.9 C 8.300000000000002 47.3 8.400000000000002 49.1 8.400000000000002 50.4 C 8.400000000000002 51.4 8.400000000000002 66 8.400000000000002 73 C 8.400000000000002 75.2 9.600000000000001 76.6 11.400000000000002 76.6 C 12.700000000000003 76.6 21.400000000000002 76.6 26.200000000000003 76.6 C 28.200000000000003 76.6 29.400000000000002 74.69999999999999 29.400000000000002 73.1 C 29.500000000000004 70.89999999999999 29.400000000000002 60.39999999999999 29.400000000000002 58.099999999999994 C 29.400000000000002 56.89999999999999 29.500000000000004 56.199999999999996 30.900000000000002 54.49999999999999 C 38.1 45.69999999999999 38.6 45.599999999999994 40.2 45.599999999999994 C 41.7 45.599999999999994 42.300000000000004 45.699999999999996 49.5 54.49999999999999 C 50.9 56.199999999999996 51 56.89999999999999 51 58.099999999999994 C 51 60.49999999999999 50.9 71 51 73.1 C 51 74.69999999999999 52.2 76.6 54.2 76.6 C 59 76.6 67.7 76.6 69 76.6 C 70.8 76.6 72 75.19999999999999 72 73 C 72 66.1 72 51.5 72 50.4 C 72 49.1 72.1 47.3 69.7 44.9 z" stroke-linecap="round" />
</g>
		<g transform="matrix(1 0 0 1 0 -15.775)" id="EEN8O_IWZ_K4w0kGb1pCu"  >
<path style="stroke: none; stroke-width: 1; stroke-dasharray: none; stroke-linecap: butt; stroke-dashoffset: 0; stroke-linejoin: miter; stroke-miterlimit: 4; fill: rgb(0,0,0); fill-rule: evenodd; opacity: 1;" vector-effect="non-scaling-stroke"  transform=" translate(-40, -24.225)" d="M 78.7 36.7 C 78.2 36.2 75 33.2 70.8 29.300000000000004 L 70.8 13 C 70.8 12.2 70.2 11.6 69.5 11.6 L 60.4 11.6 C 59.699999999999996 11.6 59.1 12.2 59.1 13 L 59.1 18.3 C 53 12.7 47.4 7.5 45.4 5.6 C 43.699999999999996 3.8999999999999995 41.9 3.3999999999999995 40 3.3999999999999995 C 38.1 3.3999999999999995 36.3 3.8999999999999995 34.6 5.6 C 29.6 10.3 2.900000000000002 35.1 1.3000000000000043 36.7 C -0.19999999999999574 38.2 -0.2999999999999958 39.5 0.5000000000000042 40.6 L 3.8000000000000043 44.4 C 4.600000000000004 45.3 5.600000000000004 45.199999999999996 6.400000000000004 44.5 C 7.300000000000004 43.7 27.1 24.8 35.900000000000006 16.3 C 37.00000000000001 15.3 38.50000000000001 14 40.00000000000001 14 C 41.50000000000001 14 42.900000000000006 15.2 44.10000000000001 16.3 C 53.00000000000001 24.8 72.80000000000001 43.7 73.60000000000001 44.5 C 74.4 45.2 75.4 45.3 76.2 44.4 L 79.5 40.6 C 80.3 39.5 80.2 38.2 78.7 36.7 z" stroke-linecap="round" />
</g>
</g>
</g>
</svg>