<?xml version="1.0" encoding="UTF-8" standalone="no" ?>
<!DOCTYPE svg PUBLIC "-//W3C//DTD SVG 1.1//EN" "http://www.w3.org/Graphics/SVG/1.1/DTD/svg11.dtd">
<svg xmlns="http://www.w3.org/2000/svg" xmlns:xlink="http://www.w3.org/1999/xlink" version="1.1" width="500" height="500" viewBox="0 0 500 500" xml:space="preserve">
<desc>Created with Fabric.js 5.3.0</desc>
<defs>
</defs>
<g transform="matrix(-0.5651588605 0 0 -0.5651588742 342.8612465877 340.8309315622)" id="PkT3Fnth1jVNYHdev5znU"  >
<path style="stroke: rgb(189,109,67); stroke-width: 0; stroke-dasharray: none; stroke-linecap: butt; stroke-dashoffset: 0; stroke-linejoin: miter; stroke-miterlimit: 4; fill: rgb(0,0,0); fill-rule: nonzero; opacity: 1;" vector-effect="non-scaling-stroke"  transform=" translate(-176.94139, -177.049675)" d="M 34.6357 6.26291 L 347.57824 319.20545 L 347.41095 319.37273999999996 C 351.38871 323.02903 353.88279 328.27469999999994 353.88279 334.09934999999996 C 353.88279 345.13935 344.92279 354.09934999999996 333.88279 354.09934999999996 C 327.31065 354.09934999999996 321.47562 350.92404999999997 317.82917 346.02491999999995 L 6.996729999999957 35.19247999999993 C 2.714699999999957 31.523449999999933 -0.000010000000043142165 26.076819999999934 -0.000010000000043142165 19.999999999999932 C -0.000010000000043142165 8.959999999999933 8.959989999999959 -6.750155989720952e-14 19.999989999999958 -6.750155989720952e-14 C 25.748399999999958 -6.750155989720952e-14 30.932879999999958 2.4292099999999324 34.58220999999996 6.316389999999933 z" stroke-linecap="round" />
</g>
<g transform="matrix(0 -0.5651588605 0.5651588742 0 342.9224415882 159.1078734361)" id="tQPy4WFNs0kqvTwjDkVah"  >
<path style="stroke: rgb(189,109,67); stroke-width: 0; stroke-dasharray: none; stroke-linecap: butt; stroke-dashoffset: 0; stroke-linejoin: miter; stroke-miterlimit: 4; fill: rgb(0,0,0); fill-rule: nonzero; opacity: 1;" vector-effect="non-scaling-stroke"  transform=" translate(-176.94139, -177.049675)" d="M 34.6357 6.26291 L 347.57824 319.20545 L 347.41095 319.37273999999996 C 351.38871 323.02903 353.88279 328.27469999999994 353.88279 334.09934999999996 C 353.88279 345.13935 344.92279 354.09934999999996 333.88279 354.09934999999996 C 327.31065 354.09934999999996 321.47562 350.92404999999997 317.82917 346.02491999999995 L 6.996729999999957 35.19247999999993 C 2.714699999999957 31.523449999999933 -0.000010000000043142165 26.076819999999934 -0.000010000000043142165 19.999999999999932 C -0.000010000000043142165 8.959999999999933 8.959989999999959 -6.750155989720952e-14 19.999989999999958 -6.750155989720952e-14 C 25.748399999999958 -6.750155989720952e-14 30.932879999999958 2.4292099999999324 34.58220999999996 6.316389999999933 z" stroke-linecap="round" />
</g>
<g transform="matrix(-0.5651588605 0 0 -0.5651588742 157.0163634113 340.8309315627)" id="fFR9eNSKAQylnF54FCyF2"  >
<path style="stroke: rgb(189,109,67); stroke-width: 0; stroke-dasharray: none; stroke-linecap: butt; stroke-dashoffset: 0; stroke-linejoin: miter; stroke-miterlimit: 4; fill: rgb(0,0,0); fill-rule: nonzero; opacity: 1;" vector-effect="non-scaling-stroke"  transform=" translate(-176.94139, -177.049675)" d="M 34.6357 6.26291 L 347.57824 319.20545 L 347.41095 319.37273999999996 C 351.38871 323.02903 353.88279 328.27469999999994 353.88279 334.09934999999996 C 353.88279 345.13935 344.92279 354.09934999999996 333.88279 354.09934999999996 C 327.31065 354.09934999999996 321.47562 350.92404999999997 317.82917 346.02491999999995 L 6.996729999999957 35.19247999999993 C 2.714699999999957 31.523449999999933 -0.000010000000043142165 26.076819999999934 -0.000010000000043142165 19.999999999999932 C -0.000010000000043142165 8.959999999999933 8.959989999999959 -6.750155989720952e-14 19.999989999999958 -6.750155989720952e-14 C 25.748399999999958 -6.750155989720952e-14 30.932879999999958 2.4292099999999324 34.58220999999996 6.316389999999933 z" stroke-linecap="round" />
</g>
<g transform="matrix(0 -0.5651588605 0.5651588742 0 157.0775584118 159.1078734366)" id="G4YMD_iTaJTdAxty044tz"  >
<path style="stroke: rgb(189,109,67); stroke-width: 0; stroke-dasharray: none; stroke-linecap: butt; stroke-dashoffset: 0; stroke-linejoin: miter; stroke-miterlimit: 4; fill: rgb(0,0,0); fill-rule: nonzero; opacity: 1;" vector-effect="non-scaling-stroke"  transform=" translate(-176.94139, -177.049675)" d="M 34.6357 6.26291 L 347.57824 319.20545 L 347.41095 319.37273999999996 C 351.38871 323.02903 353.88279 328.27469999999994 353.88279 334.09934999999996 C 353.88279 345.13935 344.92279 354.09934999999996 333.88279 354.09934999999996 C 327.31065 354.09934999999996 321.47562 350.92404999999997 317.82917 346.02491999999995 L 6.996729999999957 35.19247999999993 C 2.714699999999957 31.523449999999933 -0.000010000000043142165 26.076819999999934 -0.000010000000043142165 19.999999999999932 C -0.000010000000043142165 8.959999999999933 8.959989999999959 -6.750155989720952e-14 19.999989999999958 -6.750155989720952e-14 C 25.748399999999958 -6.750155989720952e-14 30.932879999999958 2.4292099999999324 34.58220999999996 6.316389999999933 z" stroke-linecap="round" />
</g>
</svg>